<svg xmlns="http://www.w3.org/2000/svg" viewBox="0 0 28.45 28.45"><defs><style>.cls-1{fill:#010201;}.cls-2{fill:#fff;}</style></defs><title>fb</title><g id="Calque_2" data-name="Calque 2"><g id="Work05_Prototype" data-name="Work05 Prototype"><g id="Mobile"><path class="cls-1" d="M28.45,14.22A14.23,14.23,0,1,0,12,28.27V18.33H8.39V14.22H12V11.09c0-3.57,2.12-5.53,5.37-5.53a22.56,22.56,0,0,1,3.19.27v3.5h-1.8a2.06,2.06,0,0,0-2.31,2.23v2.66h3.94l-.63,4.11H16.45v9.94A14.22,14.22,0,0,0,28.45,14.22Z"/><path class="cls-2" d="M19.76,18.33l.63-4.11H16.45V11.56a2.06,2.06,0,0,1,2.31-2.23h1.8V5.83a22.56,22.56,0,0,0-3.19-.27c-3.25,0-5.37,2-5.37,5.53v3.13H8.39v4.11H12v9.94a13.84,13.84,0,0,0,4.45,0V18.33Z"/></g></g></g></svg>