<svg xmlns="http://www.w3.org/2000/svg" viewBox="0 0 28.45 28.45"><defs><style>.cls-1{fill:#010201;}.cls-2{fill:#fff;}</style></defs><title>In</title><g id="Calque_2" data-name="Calque 2"><g id="Work05_Prototype" data-name="Work05 Prototype"><g id="Mobile"><circle class="cls-1" cx="14.22" cy="14.22" r="14.22"/><path class="cls-2" d="M14.22,6.88c2.39,0,2.68,0,3.62,0a5,5,0,0,1,1.66.31,2.74,2.74,0,0,1,1,.67,2.7,2.7,0,0,1,.67,1,4.79,4.79,0,0,1,.31,1.66c0,1,0,1.23,0,3.62s0,2.68,0,3.62a4.73,4.73,0,0,1-.31,1.66,3,3,0,0,1-1.7,1.7,4.73,4.73,0,0,1-1.66.31c-.94,0-1.23,0-3.62,0s-2.67,0-3.62,0a4.79,4.79,0,0,1-1.66-.31,2.7,2.7,0,0,1-1-.67,2.74,2.74,0,0,1-.67-1,5,5,0,0,1-.31-1.66c0-.94,0-1.23,0-3.62s0-2.67,0-3.62a5,5,0,0,1,.31-1.66,3,3,0,0,1,1.7-1.7,5,5,0,0,1,1.66-.31c1,0,1.23,0,3.62,0m0-1.61c-2.43,0-2.73,0-3.69.05a6.77,6.77,0,0,0-2.17.42A4.53,4.53,0,0,0,5.74,8.36a6.77,6.77,0,0,0-.42,2.17c0,1-.05,1.26-.05,3.69s0,2.74.05,3.7a6.77,6.77,0,0,0,.42,2.17,4.39,4.39,0,0,0,1,1.59,4.53,4.53,0,0,0,1.59,1,6.53,6.53,0,0,0,2.17.41c1,.05,1.26.06,3.69.06s2.74,0,3.7-.06a6.53,6.53,0,0,0,2.17-.41,4.53,4.53,0,0,0,2.62-2.62,6.53,6.53,0,0,0,.41-2.17c.05-1,.06-1.26.06-3.7s0-2.73-.06-3.69a6.53,6.53,0,0,0-.41-2.17,4.53,4.53,0,0,0-1-1.59,4.39,4.39,0,0,0-1.59-1,6.77,6.77,0,0,0-2.17-.42c-1,0-1.26-.05-3.7-.05Z"/><path class="cls-2" d="M14.22,9.62a4.6,4.6,0,1,0,4.6,4.6A4.6,4.6,0,0,0,14.22,9.62Zm0,7.59a3,3,0,1,1,3-3A3,3,0,0,1,14.22,17.21Z"/><circle class="cls-2" cx="19" cy="9.44" r="1.07"/></g></g></g></svg>