<svg xmlns="http://www.w3.org/2000/svg" viewBox="0 0 28.45 28.45"><defs><style>.cls-1{fill:#010201;}.cls-2{fill:#fefefe;}</style></defs><title>link-in</title><g id="Calque_2" data-name="Calque 2"><g id="Work05_Prototype" data-name="Work05 Prototype"><g id="Mobile"><circle class="cls-1" cx="14.22" cy="14.22" r="14.22"/><path class="cls-2" d="M15.32,12.28c.24-.26.43-.53.67-.75a3.64,3.64,0,0,1,2.63-1,6.54,6.54,0,0,1,1.65.2,3.25,3.25,0,0,1,2.3,2.41,10.37,10.37,0,0,1,.3,2.77v5.89c0,.19-.05.24-.23.23h-3c-.18,0-.22,0-.22-.22,0-1.87,0-3.74,0-5.61a5.45,5.45,0,0,0-.17-1.39,1.56,1.56,0,0,0-1.72-1.22,1.89,1.89,0,0,0-2,1.88,8.49,8.49,0,0,0,0,.88v5.45c0,.18,0,.24-.23.23H12.19C12,22,12,22,12,21.78V11c0-.18,0-.22.22-.22h2.91c.17,0,.22.05.22.22C15.32,11.42,15.32,11.85,15.32,12.28Z"/><path class="cls-2" d="M9.78,16.4c0,1.78,0,3.56,0,5.34,0,.2,0,.26-.25.25h-3c-.16,0-.21,0-.21-.2q0-5.41,0-10.82c0-.15,0-.2.2-.2H9.56c.19,0,.22.07.22.24Z"/><path class="cls-2" d="M10.06,7.19a2,2,0,1,1-2-2A2,2,0,0,1,10.06,7.19Z"/></g></g></g></svg>